<svg height="512pt" viewBox="0 0 512 512" width="512pt" xmlns="http://www.w3.org/2000/svg"><path
fill="#6E7177" d="m287.800781 224.199219c-17.582031-17.578125-46-17.609375-63.601562 0-17.578125 17.582031-17.609375 45.992187 0 63.601562 17.101562 17.097657 46.5 17.097657 63.601562 0 17.578125-17.582031 17.609375-45.992187 0-63.601562zm-31.800781 53.101562-21.300781-21.300781 21.300781-21.300781 21.300781 21.300781zm31.800781-53.101562c-17.582031-17.578125-46-17.609375-63.601562 0-17.578125 17.582031-17.609375 45.992187 0 63.601562 17.101562 17.097657 46.5 17.097657 63.601562 0 17.578125-17.582031 17.609375-45.992187 0-63.601562zm-31.800781 53.101562-21.300781-21.300781 21.300781-21.300781 21.300781 21.300781zm31.800781-53.101562c-17.582031-17.578125-46-17.609375-63.601562 0-17.578125 17.582031-17.609375 45.992187 0 63.601562 17.101562 17.097657 46.5 17.097657 63.601562 0 17.578125-17.582031 17.609375-45.992187 0-63.601562zm-31.800781 53.101562-21.300781-21.300781 21.300781-21.300781 21.300781 21.300781zm31.800781-53.101562c-17.582031-17.578125-46-17.609375-63.601562 0-17.578125 17.582031-17.609375 45.992187 0 63.601562 17.101562 17.097657 46.5 17.097657 63.601562 0 17.578125-17.582031 17.609375-45.992187 0-63.601562zm-31.800781 53.101562-21.300781-21.300781 21.300781-21.300781 21.300781 21.300781zm31.800781-53.101562c-17.582031-17.578125-46-17.609375-63.601562 0-17.578125 17.582031-17.609375 45.992187 0 63.601562 17.101562 17.097657 46.5 17.097657 63.601562 0 17.578125-17.582031 17.609375-45.992187 0-63.601562zm-31.800781 53.101562-21.300781-21.300781 21.300781-21.300781 21.300781 21.300781zm31.800781-53.101562c-17.582031-17.578125-46-17.609375-63.601562 0-17.578125 17.582031-17.609375 45.992187 0 63.601562 17.101562 17.097657 46.5 17.097657 63.601562 0 17.578125-17.582031 17.609375-45.992187 0-63.601562zm-31.800781 53.101562-21.300781-21.300781 21.300781-21.300781 21.300781 21.300781zm0-277.300781c-141.566406 0-256 114.390625-256 256 0 141.566406 114.390625 256 256 256 141.566406 0 256-114.390625 256-256 0-141.566406-114.390625-256-256-256zm-74.398438 181.601562c-40.800781 41.097657-40.800781 107.699219 0 148.796876l-21 21c-52.800781-52.5-52.800781-138.296876 0-190.796876zm-42.300781-42.300781c-64.199219 64.5-64.199219 168.898438 0 233.398438l-21.300781 21.300781c-75.898438-76.199219-75.898438-199.800781 0-276zm63.597657 63.597657c28.5-28.199219 77.703124-28.199219 106.203124 0 29.199219 29.203124 29.238282 76.960937 0 106.203124-29.203124 29.199219-76.960937 29.238282-106.203124 0-29.199219-29.203124-29.238282-76.960937 0-106.203124zm148.5-42.296876c52.800781 52.5 52.800781 138.296876 0 190.796876l-21-21c40.800781-41.097657 40.800781-107.699219 0-148.796876zm21.300781 212.097657c64.199219-64.5 64.199219-168.898438 0-233.398438l21.300781-21.300781c75.898438 76.199219 75.898438 199.800781 0 276zm-84.898438-148.5c-17.582031-17.578125-46-17.609375-63.601562 0-17.578125 17.582031-17.609375 45.992187 0 63.601562 17.101562 17.097657 46.5 17.097657 63.601562 0 17.578125-17.582031 17.609375-45.992187 0-63.601562zm-31.800781 53.101562-21.300781-21.300781 21.300781-21.300781 21.300781 21.300781zm31.800781-53.101562c-17.582031-17.578125-46-17.609375-63.601562 0-17.578125 17.582031-17.609375 45.992187 0 63.601562 17.101562 17.097657 46.5 17.097657 63.601562 0 17.578125-17.582031 17.609375-45.992187 0-63.601562zm-31.800781 53.101562-21.300781-21.300781 21.300781-21.300781 21.300781 21.300781zm31.800781-53.101562c-17.582031-17.578125-46-17.609375-63.601562 0-17.578125 17.582031-17.609375 45.992187 0 63.601562 17.101562 17.097657 46.5 17.097657 63.601562 0 17.578125-17.582031 17.609375-45.992187 0-63.601562zm-31.800781 53.101562-21.300781-21.300781 21.300781-21.300781 21.300781 21.300781zm31.800781-53.101562c-17.582031-17.578125-46-17.609375-63.601562 0-17.578125 17.582031-17.609375 45.992187 0 63.601562 17.101562 17.097657 46.5 17.097657 63.601562 0 17.578125-17.582031 17.609375-45.992187 0-63.601562zm-31.800781 53.101562-21.300781-21.300781 21.300781-21.300781 21.300781 21.300781zm31.800781-53.101562c-17.582031-17.578125-46-17.609375-63.601562 0-17.578125 17.582031-17.609375 45.992187 0 63.601562 17.101562 17.097657 46.5 17.097657 63.601562 0 17.578125-17.582031 17.609375-45.992187 0-63.601562zm-31.800781 53.101562-21.300781-21.300781 21.300781-21.300781 21.300781 21.300781zm0 0"/></svg>